# xmcd
#
# Track frame offsets:
#	150
#	13524
#	29538
#	42377
#	67169
#	83869
#	98378
#	119911
#	131756
#	148092
#	174527
#
# Disc length: 2520 seconds
#
# Revision: 0
# Processed by: cddbd v1.5.1PL0 Copyright (c) Steve Scherf et al.
# Submitted via: dBpowerAMP V4.0
#
DISCID=9e09d60b
DTITLE=Jason Ringenberg - Empire Builders
DYEAR=1900
DGENRE=
TTITLE0=American Question
TTITLE1=Rebel Flag In Germany
TTITLE2=Rainbow Stew
TTITLE3=Tuskegee Pride
TTITLE4=She Hung The Moon (Until It Died)
TTITLE5=Link Wray
TTITLE6=Chief Joseph's Last Dream
TTITLE7=New Fashioned Imperialists
TTITLE8=Half The Man
TTITLE9=Eddie Rode The Orphan Train
TTITLE10=American Reprieve
EXTD=
EXTT0=
EXTT1=
EXTT2=
EXTT3=
EXTT4=
EXTT5=
EXTT6=
EXTT7=
EXTT8=
EXTT9=
EXTT10=
PLAYORDER=
